<svg width="131" height="41" viewBox="0 0 131 41" fill="none" xmlns="http://www.w3.org/2000/svg">
<path d="M109.728 3.12036C109.954 3.20463 110.222 3.28595 110.511 3.40811C110.802 3.5279 111.123 3.66341 111.474 3.81017C111.825 3.95693 112.203 4.11511 112.609 4.28471C113.005 4.47502 113.425 4.67706 113.867 4.89084C114.088 4.99773 114.314 5.10651 114.544 5.21942C114.66 5.27588 114.777 5.33218 114.895 5.38848C115.008 5.45173 115.124 5.51704 115.242 5.5822C115.71 5.84092 116.194 6.11187 116.694 6.38835C116.819 6.45747 116.944 6.52879 117.072 6.59776C117.195 6.67589 117.318 6.75404 117.442 6.83217C117.691 6.98828 117.943 7.14867 118.197 7.3089C118.704 7.63157 119.228 7.95317 119.736 8.31807C121.786 9.74765 123.839 11.4752 125.57 13.4256C127.306 15.3667 128.687 17.5419 129.554 19.6152C130.563 22.0145 131.073 24.6245 130.97 27.242C130.917 28.5497 130.705 29.8573 130.315 31.1197C129.927 32.3818 129.351 33.5927 128.605 34.6909C127.858 35.7891 126.939 36.7747 125.887 37.5828C124.84 38.3949 123.677 39.0483 122.461 39.5407C120.018 40.5174 117.385 40.8644 114.806 40.7514C112.222 40.6298 109.672 40.0341 107.299 39.0144C106.113 38.5034 104.972 37.8802 103.903 37.1451C103.391 36.7604 102.866 36.3922 102.369 35.9931L101.638 35.3746L101.271 35.0643C101.148 34.9616 101.038 34.847 100.921 34.7372C99.0476 33.0037 97.4186 31.0395 95.9824 28.9661C94.5437 26.8906 93.2912 24.7087 92.1515 22.4832C91.4331 21.0938 90.5189 19.1975 89.8594 17.6304C89.1977 16.0657 88.7821 14.8353 89.0297 14.7802C89.2926 14.7195 89.8546 15.4656 90.6445 16.8277C91.4366 18.1897 92.4416 20.1753 93.7005 22.5438C95.2211 25.4079 96.9264 28.1767 98.9687 30.6705L99.75 31.5927C100.016 31.8944 100.299 32.1817 100.571 32.4764C100.71 32.6224 100.843 32.7711 100.987 32.9146L101.423 33.329L101.859 33.7435C102.005 33.8824 102.148 34.0214 102.304 34.1485L103.222 34.9253C103.529 35.1819 103.861 35.4079 104.179 35.6504L104.66 36.0083L105.157 36.3362C105.321 36.4494 105.493 36.5486 105.665 36.6501C105.836 36.7493 106.002 36.8578 106.18 36.9499C108.961 38.4907 112.144 39.3246 115.321 39.3979C116.115 39.4135 116.912 39.3888 117.698 39.2959C118.094 39.2615 118.483 39.1897 118.873 39.1313C119.259 39.0508 119.648 38.9813 120.028 38.8745C120.413 38.7852 120.785 38.6568 121.16 38.5415C121.526 38.4024 121.898 38.2762 122.254 38.1111C122.617 37.9632 122.96 37.7745 123.306 37.599C123.642 37.4019 123.982 37.2111 124.301 36.9863C125.242 36.3485 126.092 35.5857 126.805 34.708C127.516 33.8281 128.095 32.8463 128.529 31.8012C129.399 29.7063 129.663 27.3736 129.442 25.1016C129.22 22.8207 128.516 20.6002 127.413 18.5813C126.317 16.5554 124.862 14.7258 123.203 13.0975C121.542 11.4715 119.691 10.0235 117.711 8.77148C117.216 8.46131 116.724 8.142 116.224 7.83657L114.686 6.98523C114.18 6.68692 113.643 6.4531 113.117 6.19398C112.587 5.94403 112.07 5.66878 111.521 5.45802L109.897 4.78183C109.349 4.57772 108.793 4.38972 108.24 4.19256C107.962 4.09856 107.689 3.98859 107.408 3.90819L106.565 3.66019L105.721 3.4122L105.299 3.28829C105.158 3.2492 105.013 3.21928 104.871 3.18477L103.16 2.78172C102.876 2.70812 102.584 2.66853 102.298 2.61295L101.432 2.45774L100.567 2.30256L99.693 2.19243C99.1117 2.12412 98.5313 2.03574 97.9468 1.98547L96.3721 1.87552C96.1084 1.86062 95.8479 1.8277 95.5831 1.82846L94.7942 1.81475C94.2685 1.80931 93.7417 1.78837 93.2148 1.79637L91.6364 1.8558C91.3745 1.86748 91.1097 1.86821 90.8487 1.89096L90.0636 1.96379C89.5396 2.01386 89.015 2.05506 88.4914 2.11178L86.9295 2.34363C86.6697 2.38408 86.4095 2.41791 86.1498 2.46058L85.3774 2.61929L83.8328 2.93891L82.31 3.34606L81.5473 3.54857L80.7938 3.78608C80.5435 3.86594 80.2906 3.94151 80.0405 4.02579L79.293 4.28513C77.3032 4.98533 75.3509 5.8075 73.4208 6.69266C69.5609 8.4674 65.7871 10.4853 61.8801 12.2856C57.9803 14.0943 53.9005 15.6531 49.6183 16.4828C47.6113 16.8749 45.5618 17.103 43.5006 17.1028C41.4395 17.1026 39.3684 16.865 37.3597 16.3427L36.6068 16.144C36.3525 16.0728 36.0948 15.984 35.8458 15.8925C35.3429 15.7052 34.8557 15.4856 34.384 15.2339C33.4429 14.7324 32.5582 14.1134 31.7772 13.356C31.0009 12.6004 30.3164 11.6937 29.9084 10.6052C29.7037 10.0655 29.5911 9.47483 29.5805 8.8792C29.5721 8.28343 29.6747 7.6821 29.8741 7.12962C30.0718 6.58393 30.3595 6.05196 30.7433 5.58892C31.1248 5.12604 31.5963 4.7392 32.1033 4.44554C33.1282 3.85746 34.2543 3.63167 35.331 3.56067C36.4148 3.49362 37.4782 3.58155 38.5143 3.75594C39.5525 3.92796 40.5638 4.19311 41.5527 4.5199C42.0446 4.67902 42.5457 4.87311 43.0107 5.06082L44.4126 5.62792C45.3478 6.01411 46.2841 6.4158 47.2097 6.85606C49.0566 7.7369 50.8771 8.78201 52.4844 10.1514C53.8781 11.331 55.0668 12.7943 55.9097 14.4353C56.7417 16.0815 57.2443 17.9488 57.1487 19.8559C57.0645 21.7666 56.3 23.627 55.0679 25.0708C54.4579 25.7989 53.7305 26.4084 52.9562 26.9211C52.1819 27.4337 51.354 27.8478 50.5094 28.1829C48.8109 28.8471 47.0427 29.2158 45.2714 29.4133C43.4999 29.6065 41.7206 29.6266 39.9536 29.5034C36.4665 29.2604 32.996 28.7782 29.5725 28.0768C28.768 27.904 27.9227 27.7207 27.0525 27.5324C26.1875 27.3216 25.2954 27.1059 24.3965 26.8886C23.5043 26.6395 22.6012 26.3935 21.706 26.1336C20.8202 25.8485 19.9373 25.5744 19.0841 25.2781C18.3849 25.0201 17.563 24.7261 16.6918 24.3955C16.2589 24.2211 15.8121 24.0388 15.3585 23.8547C14.9068 23.6661 14.4407 23.494 13.9896 23.2831C12.1667 22.4896 10.3812 21.6267 9.07704 20.9304C8.51491 20.6271 7.94345 20.3177 7.37421 20.0083C6.81115 19.6917 6.25427 19.368 5.70574 19.0682C5.39307 18.8943 5.08812 18.7354 4.80914 18.5658C4.53015 18.3963 4.26524 18.2368 4.01423 18.0853C3.51206 17.78 3.06774 17.5063 2.68082 17.2575C1.92108 16.7388 1.38138 16.3427 1.05461 16.063C0.40092 15.5013 0.594525 15.4054 1.54948 15.6923C1.96789 15.8187 1.65917 15.4153 2.84882 16.0975C2.89751 16.1252 2.9971 16.1805 3.0412 16.2064C3.49519 16.4594 3.9652 16.6868 4.42362 16.9395C4.88189 17.19 5.34031 17.4427 5.79858 17.6932C6.26303 17.9366 6.72572 18.1867 7.18636 18.4393L7.87874 18.8225L8.58095 19.1872C9.04776 19.4326 9.51695 19.6801 9.98614 19.9276C10.4552 20.1729 10.9385 20.3994 11.4137 20.6376C11.8927 20.8666 12.3646 21.1206 12.8556 21.3309C13.3427 21.5482 13.8321 21.7654 14.3214 21.9826C14.9193 22.2566 15.5341 22.485 16.1413 22.734C16.7505 22.9783 17.358 23.2295 17.9785 23.4442L19.8305 24.1132L21.7029 24.723C22.3232 24.9355 22.9602 25.1 23.5898 25.2873L24.535 25.5615C24.8508 25.6529 25.1698 25.7262 25.4872 25.8085C26.1237 25.9664 26.7589 26.1378 27.397 26.2866L29.3208 26.7081C31.8945 27.2265 34.4862 27.6502 37.0998 27.912C37.7507 27.9888 38.4076 28.0251 39.0615 28.0817L40.0421 28.162C40.366 28.1794 40.6902 28.199 41.0135 28.2075C42.3097 28.2501 43.6065 28.206 44.8879 28.0695C46.169 27.9285 47.4417 27.6991 48.66 27.3289C49.881 26.9652 51.0544 26.4624 52.0926 25.7777C52.6118 25.4365 53.0967 25.0509 53.5293 24.6178C53.9596 24.1827 54.3375 23.7 54.6483 23.1798C54.9591 22.6596 55.2069 22.0992 55.3843 21.5172C55.4549 21.2229 55.5504 20.9336 55.585 20.633C55.6056 20.4825 55.6442 20.3352 55.6492 20.1835L55.6819 19.7295C55.6949 19.1211 55.6697 18.5065 55.5449 17.901L55.5066 17.6723L55.4507 17.447L55.3368 16.9966C55.2361 16.7032 55.1571 16.4017 55.0303 16.1168C54.8136 15.5334 54.5165 14.9779 54.2026 14.437C53.8757 13.9013 53.5146 13.3859 53.1114 12.9046C52.7059 12.4234 52.2778 11.9683 51.7989 11.5502C51.3306 11.1246 50.8268 10.7326 50.3067 10.3619C49.7885 9.98649 49.2397 9.65113 48.6869 9.3227C48.1259 9.00375 47.5591 8.69634 46.9759 8.4101C45.5464 7.70473 44.0589 7.09244 42.5542 6.48804C41.0823 5.87466 39.5772 5.42381 38.0308 5.17836C37.2614 5.06094 36.4864 4.99287 35.7269 5.01716C35.3471 5.02821 34.9707 5.0568 34.6034 5.12037C34.2381 5.17935 33.879 5.26459 33.5427 5.3883C33.2063 5.512 32.8874 5.6612 32.6003 5.85266C32.3156 6.04618 32.0623 6.27532 31.8468 6.53519C31.6267 6.79317 31.4586 7.09423 31.323 7.41305C31.1828 7.73218 31.0903 8.06354 31.0495 8.40241C30.9654 9.07587 31.094 9.76781 31.3864 10.4149C31.6768 11.0643 32.1239 11.665 32.6487 12.1979C33.7029 13.2655 35.0538 14.0876 36.4831 14.6016C36.6636 14.6669 36.8389 14.7236 37.0274 14.7771L37.5967 14.9286C37.9755 15.0289 38.3526 15.1382 38.7422 15.2021C39.1298 15.2707 39.5103 15.3642 39.9011 15.4147L41.0712 15.5641C42.6396 15.7101 44.2237 15.7014 45.7992 15.5688C49.2578 15.2775 52.6406 14.3172 55.9888 13.1502L55.9323 13.1697C59.4131 11.8933 62.7569 10.2193 66.1193 8.55503C69.3007 6.97692 72.5295 5.34432 75.9043 3.95293C77.5917 3.25834 79.3147 2.62581 81.0762 2.09738L82.409 1.74139L83.0754 1.56341C83.2982 1.50329 83.5186 1.44111 83.7451 1.40076L85.0944 1.12152C85.5441 1.0277 85.9935 0.929436 86.4481 0.873103C93.6946 -0.313404 101.114 0.337129 107.731 2.45251C107.996 2.52292 108.298 2.63308 108.633 2.74534C108.979 2.86346 109.344 2.98921 109.728 3.12036Z" fill="#6DBCE9"/>
</svg>
